<svg width="180" height="61" viewBox="0 0 180 61" fill="none" xmlns="http://www.w3.org/2000/svg">
<path d="M124.044 30.6965C123.287 30.7154 122.529 30.7216 121.768 30.7091C121.287 30.7001 120.807 30.684 120.33 30.6652V28.4465C120.84 28.4967 121.35 28.5406 121.864 28.5747C122.424 28.6123 122.987 28.6374 123.55 28.6562C123.675 29.3614 123.84 30.0415 124.044 30.6965Z" fill="#0C0A1C"/>
<path d="M160.885 16.011C159.179 17.459 157.395 18.8255 155.538 20.1042C154.511 20.8121 153.457 21.4922 152.387 22.141C150.797 23.106 149.16 23.9994 147.481 24.8175C145.979 25.5505 144.442 26.2243 142.878 26.8354C139.622 28.1141 136.227 29.098 132.751 29.753C132.573 29.27 132.428 28.7503 132.326 28.1956C135.77 27.7288 139.175 26.9295 142.474 25.8229C144.153 25.2619 145.805 24.6284 147.429 23.9241C149.013 23.235 150.567 22.4824 152.085 21.6616C153.214 21.0531 154.327 20.4116 155.42 19.7377C157.297 18.5782 159.114 17.3246 160.862 15.9868L160.885 16.011Z" fill="#0C0A1C"/>
<path d="M124.044 30.6965C123.287 30.7154 122.529 30.7216 121.768 30.7091C121.287 30.7001 120.807 30.684 120.33 30.6652V28.4465C120.84 28.4967 121.35 28.5406 121.864 28.5747C122.424 28.6123 122.987 28.6374 123.55 28.6562C123.675 29.3614 123.84 30.0415 124.044 30.6965Z" fill="#0C0A1C"/>
<path d="M160.885 16.011C159.179 17.459 157.395 18.8255 155.538 20.1042C154.511 20.8121 153.457 21.4922 152.387 22.141C150.797 23.106 149.16 23.9994 147.481 24.8175C145.979 25.5505 144.442 26.2243 142.878 26.8354C139.622 28.1141 136.227 29.098 132.751 29.753C132.573 29.27 132.428 28.7503 132.326 28.1956C135.77 27.7288 139.175 26.9295 142.474 25.8229C144.153 25.2619 145.805 24.6284 147.429 23.9241C149.013 23.235 150.567 22.4824 152.085 21.6616C153.214 21.0531 154.327 20.4116 155.42 19.7377C157.297 18.5782 159.114 17.3246 160.862 15.9868L160.885 16.011Z" fill="#0C0A1C"/>
<path d="M176.483 1.77745C176.361 1.87332 176.241 1.97279 176.123 2.07225C174.436 3.50236 172.66 4.85272 170.928 6.24072L158.684 3.43068L157.977 3.75505L168.159 8.2013L161.598 14.8089L157.749 14.3035L160.987 16.0203L162.172 19.0508L162.384 15.7461L170.593 10.7067L173.363 21.0786L173.944 20.1305L172.947 8.81331C174.624 7.48714 176.3 6.16187 177.977 4.8357C178.693 4.26939 179.436 3.76581 179.829 2.92441C180.004 2.54896 180.068 2.10899 179.906 1.72906C179.529 0.84196 178.375 0.795365 177.57 1.11795C177.171 1.27834 176.817 1.5158 176.483 1.77745Z" fill="#0C0A1C"/>
<path d="M24.8982 41.1721H33.8971L28.066 25.3638H19.6084L24.8982 41.1721Z" fill="#0C0A1C"/>
<path d="M11.0157 9.55615L5.18457 25.3636H13.6422L16.3017 17.4164L18.9612 25.3636H27.4188L21.5877 9.55615H11.0157Z" fill="#0C0A1C"/>
<path d="M0 41.1721H8.9999L14.2897 25.3638H5.8311L0 41.1721Z" fill="#0C0A1C"/>
<path d="M47.5224 9.55566L41.1105 21.0449L34.6976 9.55656L24.6631 9.55566L34.4745 25.364H47.7456L57.7179 9.55656L47.5224 9.55566Z" fill="#0C0A1C"/>
<path d="M37.356 28.9059V41.1721H46.1591V28.9059L48.3931 25.3638H35.1211L37.356 28.9059Z" fill="#0C0A1C"/>
<path d="M72.4222 41.1721C81.6339 41.1721 88.1683 36.0323 88.1683 28.647H79.7285C79.2296 32.2321 76.9156 34.3486 72.4232 34.3486C67.0684 34.3486 64.391 31.1954 64.391 25.3647H55.5879C55.5869 34.7366 61.9857 41.1721 72.4222 41.1721Z" fill="#0C0A1C"/>
<path d="M71.7737 16.3801C76.3565 16.3801 78.5801 18.6686 79.0791 21.8218H87.5188C87.5188 14.5655 80.8028 9.55566 71.7728 9.55566C61.3363 9.55566 54.9375 15.9912 54.9375 25.364H63.7406C63.7425 19.5333 66.4199 16.3801 71.7737 16.3801Z" fill="#0C0A1C"/>
<path d="M120.33 25.3631V41.1722H111.526V28.6471H99.9099V41.1722L91.1058 41.1705V25.3631H90.46V9.55566H99.2612V21.4768H110.877V9.55566H119.681V25.3631H120.33Z" fill="#0C0A1C"/>
<path d="M154.826 18.2304C153.657 18.9634 152.471 19.6534 151.27 20.2985C149.944 21.0163 148.58 21.6865 147.187 22.3012C146.358 18.4374 143.779 16.381 139.456 16.381C134.1 16.381 131.422 19.5333 131.422 25.3631H132.071C132.071 25.8021 132.087 26.2278 132.12 26.6355C132.156 27.1839 132.225 27.7045 132.324 28.1964C132.426 28.7511 132.571 29.2717 132.749 29.7538C129.888 30.2995 126.977 30.6184 124.046 30.6973H124.043C123.838 30.0423 123.674 29.3622 123.548 28.657C123.456 28.1462 123.387 27.6193 123.341 27.0835C123.292 26.5226 123.266 25.9491 123.266 25.3631H122.62C122.62 15.993 129.018 9.55566 139.454 9.55566C146.957 9.55566 152.372 12.8809 154.826 18.2304Z" fill="#0C0A1C"/>
<path d="M156.937 25.3627C156.937 34.7364 150.539 41.1701 140.103 41.1701C132.484 41.1701 127.015 37.7418 124.621 32.2418C127.565 32.1352 130.528 31.7875 133.462 31.2104C134.759 33.2696 136.975 34.3475 140.103 34.3475C145.173 34.3475 147.844 31.5205 148.11 26.2687C148.13 25.9738 148.137 25.6728 148.137 25.3627H147.488C147.488 25.1781 147.484 24.9962 147.481 24.817C149.161 23.9989 150.797 23.1056 152.387 22.1405C153.457 21.4918 154.511 20.8116 155.538 20.1038C155.703 20.6369 155.837 21.1853 155.949 21.7489C156.176 22.8932 156.292 24.1029 156.292 25.3627H156.937Z" fill="#0C0A1C"/>
<path d="M155.537 20.104C154.51 20.8119 153.457 21.492 152.387 22.1408C150.797 23.1058 149.161 23.9992 147.481 24.8173C147.471 24.5135 147.455 24.2125 147.429 23.9239C149.012 23.2349 150.566 22.4822 152.083 21.6614C153.213 21.053 154.326 20.4114 155.419 19.7375C155.461 19.8603 155.498 19.9822 155.537 20.104Z" fill="#0C0A1C"/>
<path d="M34.0801 60.7971H35.6878V56.3822H40.9196V55.8857H34.0801V60.7971Z" fill="#0C0A1C"/>
<path d="M33.4551 55.886H40.2946V55.196H35.0638V52.231H40.7587V50.9756H33.4551V55.886Z" fill="#0C0A1C"/>
<path d="M64.0426 52.3967L65.4216 55.886H66.9993L65.0282 50.9756H63.058L61.0869 55.886H62.6645L64.0426 52.3967Z" fill="#0C0A1C"/>
<path d="M66.0458 55.8857L66.6238 57.3481H62.7113L63.2884 55.8857H61.7106L59.7402 60.7971H61.3924L62.3046 58.5345H67.0296L67.9277 60.7971H69.5949L67.6236 55.8857H66.0458Z" fill="#0C0A1C"/>
<path d="M93.284 55.2795L91.8494 55.0725C90.4007 54.8799 90.0383 54.4793 90.0383 53.7347C90.0383 52.6863 90.7198 51.9972 92.2551 51.9972C93.8205 51.9972 94.5011 52.6585 94.6602 53.956H96.1672C96.1672 52.0385 94.9058 50.8386 92.2975 50.8386C89.6891 50.8386 88.4287 52.0662 88.4287 53.8189C88.4287 54.8225 88.7902 55.4757 89.6694 55.8879H95.2993C94.791 55.5904 94.1208 55.3924 93.284 55.2795Z" fill="#0C0A1C"/>
<path d="M95.9253 55.8857H90.2954C90.7208 56.0856 91.2574 56.2325 91.953 56.3275L93.3875 56.5345C95.0245 56.7558 95.4452 57.2657 95.4452 57.9834C95.4452 59.073 94.7204 59.7764 92.9536 59.7764C91.1567 59.7764 90.5043 59.1008 90.3452 57.6797H88.7949C88.7949 59.7764 90.1278 60.935 92.9244 60.935C95.721 60.935 97.0539 59.7487 97.0539 57.8858C97.053 56.9494 96.6595 56.3123 95.9253 55.8857Z" fill="#0C0A1C"/>
<path d="M115.612 50.9756V52.231H118.815V55.886H120.423V52.231H123.641V50.9756H115.612Z" fill="#0C0A1C"/>
<path d="M121.048 55.8857H119.439V60.7962H121.048V55.8857Z" fill="#0C0A1C"/>
</svg>
